<svg xmlns="http://www.w3.org/2000/svg" version="1.1" xmlns:xlink="http://www.w3.org/1999/xlink" xmlns:svgjs="http://svgjs.dev/svgjs" width="1440" height="560" preserveAspectRatio="none" viewBox="0 0 1440 560"><g mask="url(&quot;#SvgjsMask1449&quot;)" fill="none"><path d="M15.28 173.07L44.73 190.07L44.73 224.07L15.28 241.07L-14.17 224.07L-14.17 190.07zM15.28 275.07L44.73 292.07L44.73 326.07L15.28 343.07L-14.17 326.07L-14.17 292.07zM44.73 326.07L74.17 343.07L74.17 377.07L44.73 394.07L15.28 377.07L15.28 343.07zM74.17 -30.93L103.62 -13.93L103.62 20.07L74.17 37.07L44.73 20.07L44.73 -13.93zM103.62 20.07L133.06 37.07L133.06 71.07L103.62 88.07L74.17 71.07L74.17 37.07zM74.17 377.07L103.62 394.07L103.62 428.07L74.17 445.07L44.73 428.07L44.73 394.07zM103.62 428.07L133.06 445.07L133.06 479.07L103.62 496.07L74.17 479.07L74.17 445.07zM133.06 -30.93L162.51 -13.93L162.51 20.07L133.06 37.07L103.62 20.07L103.62 -13.93zM162.51 122.07L191.95 139.07L191.95 173.07L162.51 190.07L133.06 173.07L133.06 139.07zM191.95 377.07L221.4 394.07L221.4 428.07L191.95 445.07L162.51 428.07L162.51 394.07zM250.85 -30.93L280.29 -13.93L280.29 20.07L250.85 37.07L221.4 20.07L221.4 -13.93zM250.85 71.07L280.29 88.07L280.29 122.07L250.85 139.07L221.4 122.07L221.4 88.07zM280.29 122.07L309.74 139.07L309.74 173.07L280.29 190.07L250.85 173.07L250.85 139.07zM250.85 275.07L280.29 292.07L280.29 326.07L250.85 343.07L221.4 326.07L221.4 292.07zM250.85 479.07L280.29 496.07L280.29 530.07L250.85 547.07L221.4 530.07L221.4 496.07zM309.74 173.07L339.18 190.07L339.18 224.07L309.74 241.07L280.29 224.07L280.29 190.07zM309.74 479.07L339.18 496.07L339.18 530.07L309.74 547.07L280.29 530.07L280.29 496.07zM398.07 122.07L427.52 139.07L427.52 173.07L398.07 190.07L368.63 173.07L368.63 139.07zM368.63 275.07L398.07 292.07L398.07 326.07L368.63 343.07L339.18 326.07L339.18 292.07zM368.63 377.07L398.07 394.07L398.07 428.07L368.63 445.07L339.18 428.07L339.18 394.07zM398.07 428.07L427.52 445.07L427.52 479.07L398.07 496.07L368.63 479.07L368.63 445.07zM368.63 479.07L398.07 496.07L398.07 530.07L368.63 547.07L339.18 530.07L339.18 496.07zM456.97 122.07L486.41 139.07L486.41 173.07L456.97 190.07L427.52 173.07L427.52 139.07zM456.97 224.07L486.41 241.07L486.41 275.07L456.97 292.07L427.52 275.07L427.52 241.07zM427.52 275.07L456.97 292.07L456.97 326.07L427.52 343.07L398.07 326.07L398.07 292.07zM456.97 326.07L486.41 343.07L486.41 377.07L456.97 394.07L427.52 377.07L427.52 343.07zM456.97 428.07L486.41 445.07L486.41 479.07L456.97 496.07L427.52 479.07L427.52 445.07zM486.41 71.07L515.86 88.07L515.86 122.07L486.41 139.07L456.97 122.07L456.97 88.07zM515.86 122.07L545.3 139.07L545.3 173.07L515.86 190.07L486.41 173.07L486.41 139.07zM545.3 173.07L574.75 190.07L574.75 224.07L545.3 241.07L515.86 224.07L515.86 190.07zM545.3 377.07L574.75 394.07L574.75 428.07L545.3 445.07L515.86 428.07L515.86 394.07zM574.75 428.07L604.19 445.07L604.19 479.07L574.75 496.07L545.3 479.07L545.3 445.07zM545.3 479.07L574.75 496.07L574.75 530.07L545.3 547.07L515.86 530.07L515.86 496.07zM574.75 530.07L604.19 547.07L604.19 581.07L574.75 598.07L545.3 581.07L545.3 547.07zM604.19 -30.93L633.64 -13.93L633.64 20.07L604.19 37.07L574.75 20.07L574.75 -13.93zM633.64 122.07L663.09 139.07L663.09 173.07L633.64 190.07L604.19 173.07L604.19 139.07zM604.19 173.07L633.64 190.07L633.64 224.07L604.19 241.07L574.75 224.07L574.75 190.07zM633.64 224.07L663.09 241.07L663.09 275.07L633.64 292.07L604.19 275.07L604.19 241.07zM604.19 275.07L633.64 292.07L633.64 326.07L604.19 343.07L574.75 326.07L574.75 292.07zM633.64 326.07L663.09 343.07L663.09 377.07L633.64 394.07L604.19 377.07L604.19 343.07zM604.19 377.07L633.64 394.07L633.64 428.07L604.19 445.07L574.75 428.07L574.75 394.07zM633.64 428.07L663.09 445.07L663.09 479.07L633.64 496.07L604.19 479.07L604.19 445.07zM692.53 224.07L721.98 241.07L721.98 275.07L692.53 292.07L663.09 275.07L663.09 241.07zM663.09 275.07L692.53 292.07L692.53 326.07L663.09 343.07L633.64 326.07L633.64 292.07zM721.98 -30.93L751.42 -13.93L751.42 20.07L721.98 37.07L692.53 20.07L692.53 -13.93zM721.98 71.07L751.42 88.07L751.42 122.07L721.98 139.07L692.53 122.07L692.53 88.07zM721.98 173.07L751.42 190.07L751.42 224.07L721.98 241.07L692.53 224.07L692.53 190.07zM780.87 -30.93L810.31 -13.93L810.31 20.07L780.87 37.07L751.42 20.07L751.42 -13.93zM810.31 20.07L839.76 37.07L839.76 71.07L810.31 88.07L780.87 71.07L780.87 37.07zM780.87 71.07L810.31 88.07L810.31 122.07L780.87 139.07L751.42 122.07L751.42 88.07zM810.31 224.07L839.76 241.07L839.76 275.07L810.31 292.07L780.87 275.07L780.87 241.07zM780.87 479.07L810.31 496.07L810.31 530.07L780.87 547.07L751.42 530.07L751.42 496.07zM869.21 122.07L898.65 139.07L898.65 173.07L869.21 190.07L839.76 173.07L839.76 139.07zM869.21 224.07L898.65 241.07L898.65 275.07L869.21 292.07L839.76 275.07L839.76 241.07zM869.21 428.07L898.65 445.07L898.65 479.07L869.21 496.07L839.76 479.07L839.76 445.07zM898.65 -30.93L928.1 -13.93L928.1 20.07L898.65 37.07L869.21 20.07L869.21 -13.93zM928.1 224.07L957.54 241.07L957.54 275.07L928.1 292.07L898.65 275.07L898.65 241.07zM928.1 530.07L957.54 547.07L957.54 581.07L928.1 598.07L898.65 581.07L898.65 547.07zM957.54 -30.93L986.99 -13.93L986.99 20.07L957.54 37.07L928.1 20.07L928.1 -13.93zM986.99 20.07L1016.43 37.07L1016.43 71.07L986.99 88.07L957.54 71.07L957.54 37.07zM986.99 122.07L1016.43 139.07L1016.43 173.07L986.99 190.07L957.54 173.07L957.54 139.07zM957.54 173.07L986.99 190.07L986.99 224.07L957.54 241.07L928.1 224.07L928.1 190.07zM957.54 479.07L986.99 496.07L986.99 530.07L957.54 547.07L928.1 530.07L928.1 496.07zM986.99 530.07L1016.43 547.07L1016.43 581.07L986.99 598.07L957.54 581.07L957.54 547.07zM1045.88 20.07L1075.33 37.07L1075.33 71.07L1045.88 88.07L1016.43 71.07L1016.43 37.07zM1045.88 122.07L1075.33 139.07L1075.33 173.07L1045.88 190.07L1016.43 173.07L1016.43 139.07zM1045.88 224.07L1075.33 241.07L1075.33 275.07L1045.88 292.07L1016.43 275.07L1016.43 241.07zM1075.33 377.07L1104.77 394.07L1104.77 428.07L1075.33 445.07L1045.88 428.07L1045.88 394.07zM1075.33 479.07L1104.77 496.07L1104.77 530.07L1075.33 547.07L1045.88 530.07L1045.88 496.07zM1134.22 173.07L1163.66 190.07L1163.66 224.07L1134.22 241.07L1104.77 224.07L1104.77 190.07zM1163.66 224.07L1193.11 241.07L1193.11 275.07L1163.66 292.07L1134.22 275.07L1134.22 241.07zM1163.66 326.07L1193.11 343.07L1193.11 377.07L1163.66 394.07L1134.22 377.07L1134.22 343.07zM1163.66 428.07L1193.11 445.07L1193.11 479.07L1163.66 496.07L1134.22 479.07L1134.22 445.07zM1222.55 20.07L1252 37.07L1252 71.07L1222.55 88.07L1193.11 71.07L1193.11 37.07zM1193.11 275.07L1222.55 292.07L1222.55 326.07L1193.11 343.07L1163.66 326.07L1163.66 292.07zM1222.55 326.07L1252 343.07L1252 377.07L1222.55 394.07L1193.11 377.07L1193.11 343.07zM1193.11 377.07L1222.55 394.07L1222.55 428.07L1193.11 445.07L1163.66 428.07L1163.66 394.07zM1222.55 428.07L1252 445.07L1252 479.07L1222.55 496.07L1193.11 479.07L1193.11 445.07zM1222.55 530.07L1252 547.07L1252 581.07L1222.55 598.07L1193.11 581.07L1193.11 547.07zM1252 71.07L1281.45 88.07L1281.45 122.07L1252 139.07L1222.55 122.07L1222.55 88.07zM1252 275.07L1281.45 292.07L1281.45 326.07L1252 343.07L1222.55 326.07L1222.55 292.07zM1281.45 428.07L1310.89 445.07L1310.89 479.07L1281.45 496.07L1252 479.07L1252 445.07zM1281.45 530.07L1310.89 547.07L1310.89 581.07L1281.45 598.07L1252 581.07L1252 547.07zM1310.89 -30.93L1340.34 -13.93L1340.34 20.07L1310.89 37.07L1281.45 20.07L1281.45 -13.93zM1310.89 173.07L1340.34 190.07L1340.34 224.07L1310.89 241.07L1281.45 224.07L1281.45 190.07zM1310.89 377.07L1340.34 394.07L1340.34 428.07L1310.89 445.07L1281.45 428.07L1281.45 394.07zM1340.34 428.07L1369.78 445.07L1369.78 479.07L1340.34 496.07L1310.89 479.07L1310.89 445.07zM1340.34 530.07L1369.78 547.07L1369.78 581.07L1340.34 598.07L1310.89 581.07L1310.89 547.07zM1399.23 20.07L1428.67 37.07L1428.67 71.07L1399.23 88.07L1369.78 71.07L1369.78 37.07zM1369.78 173.07L1399.23 190.07L1399.23 224.07L1369.78 241.07L1340.34 224.07L1340.34 190.07zM1369.78 479.07L1399.23 496.07L1399.23 530.07L1369.78 547.07L1340.34 530.07L1340.34 496.07zM1428.67 -30.93L1458.12 -13.93L1458.12 20.07L1428.67 37.07L1399.23 20.07L1399.23 -13.93zM1458.12 20.07L1487.56 37.07L1487.56 71.07L1458.12 88.07L1428.67 71.07L1428.67 37.07zM1428.67 71.07L1458.12 88.07L1458.12 122.07L1428.67 139.07L1399.23 122.07L1399.23 88.07zM1428.67 377.07L1458.12 394.07L1458.12 428.07L1428.67 445.07L1399.23 428.07L1399.23 394.07zM1428.67 479.07L1458.12 496.07L1458.12 530.07L1428.67 547.07L1399.23 530.07L1399.23 496.07zM1458.12 530.07L1487.56 547.07L1487.56 581.07L1458.12 598.07L1428.67 581.07L1428.67 547.07z" stroke="url(&quot;#SvgjsLinearGradient1450&quot;)" stroke-width="2"></path><path d="M11.88 173.07 a3.4 3.4 0 1 0 6.8 0 a3.4 3.4 0 1 0 -6.8 0zM41.33 190.07 a3.4 3.4 0 1 0 6.8 0 a3.4 3.4 0 1 0 -6.8 0zM41.33 224.07 a3.4 3.4 0 1 0 6.8 0 a3.4 3.4 0 1 0 -6.8 0zM11.88 241.07 a3.4 3.4 0 1 0 6.8 0 a3.4 3.4 0 1 0 -6.8 0zM-17.57 224.07 a3.4 3.4 0 1 0 6.8 0 a3.4 3.4 0 1 0 -6.8 0zM-17.57 190.07 a3.4 3.4 0 1 0 6.8 0 a3.4 3.4 0 1 0 -6.8 0zM11.88 275.07 a3.4 3.4 0 1 0 6.8 0 a3.4 3.4 0 1 0 -6.8 0zM41.33 292.07 a3.4 3.4 0 1 0 6.8 0 a3.4 3.4 0 1 0 -6.8 0zM41.33 326.07 a3.4 3.4 0 1 0 6.8 0 a3.4 3.4 0 1 0 -6.8 0zM11.88 343.07 a3.4 3.4 0 1 0 6.8 0 a3.4 3.4 0 1 0 -6.8 0zM-17.57 326.07 a3.4 3.4 0 1 0 6.8 0 a3.4 3.4 0 1 0 -6.8 0zM-17.57 292.07 a3.4 3.4 0 1 0 6.8 0 a3.4 3.4 0 1 0 -6.8 0zM70.77 343.07 a3.4 3.4 0 1 0 6.8 0 a3.4 3.4 0 1 0 -6.8 0zM70.77 377.07 a3.4 3.4 0 1 0 6.8 0 a3.4 3.4 0 1 0 -6.8 0zM41.33 394.07 a3.4 3.4 0 1 0 6.8 0 a3.4 3.4 0 1 0 -6.8 0zM11.88 377.07 a3.4 3.4 0 1 0 6.8 0 a3.4 3.4 0 1 0 -6.8 0zM70.77 -30.93 a3.4 3.4 0 1 0 6.8 0 a3.4 3.4 0 1 0 -6.8 0zM100.22 -13.93 a3.4 3.4 0 1 0 6.8 0 a3.4 3.4 0 1 0 -6.8 0zM100.22 20.07 a3.4 3.4 0 1 0 6.8 0 a3.4 3.4 0 1 0 -6.8 0zM70.77 37.07 a3.4 3.4 0 1 0 6.8 0 a3.4 3.4 0 1 0 -6.8 0zM41.33 20.07 a3.4 3.4 0 1 0 6.8 0 a3.4 3.4 0 1 0 -6.8 0zM41.33 -13.93 a3.4 3.4 0 1 0 6.8 0 a3.4 3.4 0 1 0 -6.8 0zM129.66 37.07 a3.4 3.4 0 1 0 6.8 0 a3.4 3.4 0 1 0 -6.8 0zM129.66 71.07 a3.4 3.4 0 1 0 6.8 0 a3.4 3.4 0 1 0 -6.8 0zM100.22 88.07 a3.4 3.4 0 1 0 6.8 0 a3.4 3.4 0 1 0 -6.8 0zM70.77 71.07 a3.4 3.4 0 1 0 6.8 0 a3.4 3.4 0 1 0 -6.8 0zM100.22 394.07 a3.4 3.4 0 1 0 6.8 0 a3.4 3.4 0 1 0 -6.8 0zM100.22 428.07 a3.4 3.4 0 1 0 6.8 0 a3.4 3.4 0 1 0 -6.8 0zM70.77 445.07 a3.4 3.4 0 1 0 6.8 0 a3.4 3.4 0 1 0 -6.8 0zM41.33 428.07 a3.4 3.4 0 1 0 6.8 0 a3.4 3.4 0 1 0 -6.8 0zM129.66 445.07 a3.4 3.4 0 1 0 6.8 0 a3.4 3.4 0 1 0 -6.8 0zM129.66 479.07 a3.4 3.4 0 1 0 6.8 0 a3.4 3.4 0 1 0 -6.8 0zM100.22 496.07 a3.4 3.4 0 1 0 6.8 0 a3.4 3.4 0 1 0 -6.8 0zM70.77 479.07 a3.4 3.4 0 1 0 6.8 0 a3.4 3.4 0 1 0 -6.8 0zM129.66 -30.93 a3.4 3.4 0 1 0 6.8 0 a3.4 3.4 0 1 0 -6.8 0zM159.11 -13.93 a3.4 3.4 0 1 0 6.8 0 a3.4 3.4 0 1 0 -6.8 0zM159.11 20.07 a3.4 3.4 0 1 0 6.8 0 a3.4 3.4 0 1 0 -6.8 0zM159.11 122.07 a3.4 3.4 0 1 0 6.8 0 a3.4 3.4 0 1 0 -6.8 0zM188.55 139.07 a3.4 3.4 0 1 0 6.8 0 a3.4 3.4 0 1 0 -6.8 0zM188.55 173.07 a3.4 3.4 0 1 0 6.8 0 a3.4 3.4 0 1 0 -6.8 0zM159.11 190.07 a3.4 3.4 0 1 0 6.8 0 a3.4 3.4 0 1 0 -6.8 0zM129.66 173.07 a3.4 3.4 0 1 0 6.8 0 a3.4 3.4 0 1 0 -6.8 0zM129.66 139.07 a3.4 3.4 0 1 0 6.8 0 a3.4 3.4 0 1 0 -6.8 0zM188.55 377.07 a3.4 3.4 0 1 0 6.8 0 a3.4 3.4 0 1 0 -6.8 0zM218 394.07 a3.4 3.4 0 1 0 6.8 0 a3.4 3.4 0 1 0 -6.8 0zM218 428.07 a3.4 3.4 0 1 0 6.8 0 a3.4 3.4 0 1 0 -6.8 0zM188.55 445.07 a3.4 3.4 0 1 0 6.8 0 a3.4 3.4 0 1 0 -6.8 0zM159.11 428.07 a3.4 3.4 0 1 0 6.8 0 a3.4 3.4 0 1 0 -6.8 0zM159.11 394.07 a3.4 3.4 0 1 0 6.8 0 a3.4 3.4 0 1 0 -6.8 0zM247.45 -30.93 a3.4 3.4 0 1 0 6.8 0 a3.4 3.4 0 1 0 -6.8 0zM276.89 -13.93 a3.4 3.4 0 1 0 6.8 0 a3.4 3.4 0 1 0 -6.8 0zM276.89 20.07 a3.4 3.4 0 1 0 6.8 0 a3.4 3.4 0 1 0 -6.8 0zM247.45 37.07 a3.4 3.4 0 1 0 6.8 0 a3.4 3.4 0 1 0 -6.8 0zM218 20.07 a3.4 3.4 0 1 0 6.8 0 a3.4 3.4 0 1 0 -6.8 0zM218 -13.93 a3.4 3.4 0 1 0 6.8 0 a3.4 3.4 0 1 0 -6.8 0zM247.45 71.07 a3.4 3.4 0 1 0 6.8 0 a3.4 3.4 0 1 0 -6.8 0zM276.89 88.07 a3.4 3.4 0 1 0 6.8 0 a3.4 3.4 0 1 0 -6.8 0zM276.89 122.07 a3.4 3.4 0 1 0 6.8 0 a3.4 3.4 0 1 0 -6.8 0zM247.45 139.07 a3.4 3.4 0 1 0 6.8 0 a3.4 3.4 0 1 0 -6.8 0zM218 122.07 a3.4 3.4 0 1 0 6.8 0 a3.4 3.4 0 1 0 -6.8 0zM218 88.07 a3.4 3.4 0 1 0 6.8 0 a3.4 3.4 0 1 0 -6.8 0zM306.34 139.07 a3.4 3.4 0 1 0 6.8 0 a3.4 3.4 0 1 0 -6.8 0zM306.34 173.07 a3.4 3.4 0 1 0 6.8 0 a3.4 3.4 0 1 0 -6.8 0zM276.89 190.07 a3.4 3.4 0 1 0 6.8 0 a3.4 3.4 0 1 0 -6.8 0zM247.45 173.07 a3.4 3.4 0 1 0 6.8 0 a3.4 3.4 0 1 0 -6.8 0zM247.45 275.07 a3.4 3.4 0 1 0 6.8 0 a3.4 3.4 0 1 0 -6.8 0zM276.89 292.07 a3.4 3.4 0 1 0 6.8 0 a3.4 3.4 0 1 0 -6.8 0zM276.89 326.07 a3.4 3.4 0 1 0 6.8 0 a3.4 3.4 0 1 0 -6.8 0zM247.45 343.07 a3.4 3.4 0 1 0 6.8 0 a3.4 3.4 0 1 0 -6.8 0zM218 326.07 a3.4 3.4 0 1 0 6.8 0 a3.4 3.4 0 1 0 -6.8 0zM218 292.07 a3.4 3.4 0 1 0 6.8 0 a3.4 3.4 0 1 0 -6.8 0zM247.45 479.07 a3.4 3.4 0 1 0 6.8 0 a3.4 3.4 0 1 0 -6.8 0zM276.89 496.07 a3.4 3.4 0 1 0 6.8 0 a3.4 3.4 0 1 0 -6.8 0zM276.89 530.07 a3.4 3.4 0 1 0 6.8 0 a3.4 3.4 0 1 0 -6.8 0zM247.45 547.07 a3.4 3.4 0 1 0 6.8 0 a3.4 3.4 0 1 0 -6.8 0zM218 530.07 a3.4 3.4 0 1 0 6.8 0 a3.4 3.4 0 1 0 -6.8 0zM218 496.07 a3.4 3.4 0 1 0 6.8 0 a3.4 3.4 0 1 0 -6.8 0zM335.78 190.07 a3.4 3.4 0 1 0 6.8 0 a3.4 3.4 0 1 0 -6.8 0zM335.78 224.07 a3.4 3.4 0 1 0 6.8 0 a3.4 3.4 0 1 0 -6.8 0zM306.34 241.07 a3.4 3.4 0 1 0 6.8 0 a3.4 3.4 0 1 0 -6.8 0zM276.89 224.07 a3.4 3.4 0 1 0 6.8 0 a3.4 3.4 0 1 0 -6.8 0zM306.34 479.07 a3.4 3.4 0 1 0 6.8 0 a3.4 3.4 0 1 0 -6.8 0zM335.78 496.07 a3.4 3.4 0 1 0 6.8 0 a3.4 3.4 0 1 0 -6.8 0zM335.78 530.07 a3.4 3.4 0 1 0 6.8 0 a3.4 3.4 0 1 0 -6.8 0zM306.34 547.07 a3.4 3.4 0 1 0 6.8 0 a3.4 3.4 0 1 0 -6.8 0zM394.67 122.07 a3.4 3.4 0 1 0 6.8 0 a3.4 3.4 0 1 0 -6.8 0zM424.12 139.07 a3.4 3.4 0 1 0 6.8 0 a3.4 3.4 0 1 0 -6.8 0zM424.12 173.07 a3.4 3.4 0 1 0 6.8 0 a3.4 3.4 0 1 0 -6.8 0zM394.67 190.07 a3.4 3.4 0 1 0 6.8 0 a3.4 3.4 0 1 0 -6.8 0zM365.23 173.07 a3.4 3.4 0 1 0 6.8 0 a3.4 3.4 0 1 0 -6.8 0zM365.23 139.07 a3.4 3.4 0 1 0 6.8 0 a3.4 3.4 0 1 0 -6.8 0zM365.23 275.07 a3.4 3.4 0 1 0 6.8 0 a3.4 3.4 0 1 0 -6.8 0zM394.67 292.07 a3.4 3.4 0 1 0 6.8 0 a3.4 3.4 0 1 0 -6.8 0zM394.67 326.07 a3.4 3.4 0 1 0 6.8 0 a3.4 3.4 0 1 0 -6.8 0zM365.23 343.07 a3.4 3.4 0 1 0 6.8 0 a3.4 3.4 0 1 0 -6.8 0zM335.78 326.07 a3.4 3.4 0 1 0 6.8 0 a3.4 3.4 0 1 0 -6.8 0zM335.78 292.07 a3.4 3.4 0 1 0 6.8 0 a3.4 3.4 0 1 0 -6.8 0zM365.23 377.07 a3.4 3.4 0 1 0 6.8 0 a3.4 3.4 0 1 0 -6.8 0zM394.67 394.07 a3.4 3.4 0 1 0 6.8 0 a3.4 3.4 0 1 0 -6.8 0zM394.67 428.07 a3.4 3.4 0 1 0 6.8 0 a3.4 3.4 0 1 0 -6.8 0zM365.23 445.07 a3.4 3.4 0 1 0 6.8 0 a3.4 3.4 0 1 0 -6.8 0zM335.78 428.07 a3.4 3.4 0 1 0 6.8 0 a3.4 3.4 0 1 0 -6.8 0zM335.78 394.07 a3.4 3.4 0 1 0 6.8 0 a3.4 3.4 0 1 0 -6.8 0zM424.12 445.07 a3.4 3.4 0 1 0 6.8 0 a3.4 3.4 0 1 0 -6.8 0zM424.12 479.07 a3.4 3.4 0 1 0 6.8 0 a3.4 3.4 0 1 0 -6.8 0zM394.67 496.07 a3.4 3.4 0 1 0 6.8 0 a3.4 3.4 0 1 0 -6.8 0zM365.23 479.07 a3.4 3.4 0 1 0 6.8 0 a3.4 3.4 0 1 0 -6.8 0zM394.67 530.07 a3.4 3.4 0 1 0 6.8 0 a3.4 3.4 0 1 0 -6.8 0zM365.23 547.07 a3.4 3.4 0 1 0 6.8 0 a3.4 3.4 0 1 0 -6.8 0zM453.57 122.07 a3.4 3.4 0 1 0 6.8 0 a3.4 3.4 0 1 0 -6.8 0zM483.01 139.07 a3.4 3.4 0 1 0 6.8 0 a3.4 3.4 0 1 0 -6.8 0zM483.01 173.07 a3.4 3.4 0 1 0 6.8 0 a3.4 3.4 0 1 0 -6.8 0zM453.57 190.07 a3.4 3.4 0 1 0 6.8 0 a3.4 3.4 0 1 0 -6.8 0zM453.57 224.07 a3.4 3.4 0 1 0 6.8 0 a3.4 3.4 0 1 0 -6.8 0zM483.01 241.07 a3.4 3.4 0 1 0 6.8 0 a3.4 3.4 0 1 0 -6.8 0zM483.01 275.07 a3.4 3.4 0 1 0 6.8 0 a3.4 3.4 0 1 0 -6.8 0zM453.57 292.07 a3.4 3.4 0 1 0 6.8 0 a3.4 3.4 0 1 0 -6.8 0zM424.12 275.07 a3.4 3.4 0 1 0 6.8 0 a3.4 3.4 0 1 0 -6.8 0zM424.12 241.07 a3.4 3.4 0 1 0 6.8 0 a3.4 3.4 0 1 0 -6.8 0zM453.57 326.07 a3.4 3.4 0 1 0 6.8 0 a3.4 3.4 0 1 0 -6.8 0zM424.12 343.07 a3.4 3.4 0 1 0 6.8 0 a3.4 3.4 0 1 0 -6.8 0zM483.01 343.07 a3.4 3.4 0 1 0 6.8 0 a3.4 3.4 0 1 0 -6.8 0zM483.01 377.07 a3.4 3.4 0 1 0 6.8 0 a3.4 3.4 0 1 0 -6.8 0zM453.57 394.07 a3.4 3.4 0 1 0 6.8 0 a3.4 3.4 0 1 0 -6.8 0zM424.12 377.07 a3.4 3.4 0 1 0 6.8 0 a3.4 3.4 0 1 0 -6.8 0zM453.57 428.07 a3.4 3.4 0 1 0 6.8 0 a3.4 3.4 0 1 0 -6.8 0zM483.01 445.07 a3.4 3.4 0 1 0 6.8 0 a3.4 3.4 0 1 0 -6.8 0zM483.01 479.07 a3.4 3.4 0 1 0 6.8 0 a3.4 3.4 0 1 0 -6.8 0zM453.57 496.07 a3.4 3.4 0 1 0 6.8 0 a3.4 3.4 0 1 0 -6.8 0zM483.01 71.07 a3.4 3.4 0 1 0 6.8 0 a3.4 3.4 0 1 0 -6.8 0zM512.46 88.07 a3.4 3.4 0 1 0 6.8 0 a3.4 3.4 0 1 0 -6.8 0zM512.46 122.07 a3.4 3.4 0 1 0 6.8 0 a3.4 3.4 0 1 0 -6.8 0zM453.57 88.07 a3.4 3.4 0 1 0 6.8 0 a3.4 3.4 0 1 0 -6.8 0zM541.9 139.07 a3.4 3.4 0 1 0 6.8 0 a3.4 3.4 0 1 0 -6.8 0zM541.9 173.07 a3.4 3.4 0 1 0 6.8 0 a3.4 3.4 0 1 0 -6.8 0zM512.46 190.07 a3.4 3.4 0 1 0 6.8 0 a3.4 3.4 0 1 0 -6.8 0zM571.35 190.07 a3.4 3.4 0 1 0 6.8 0 a3.4 3.4 0 1 0 -6.8 0zM571.35 224.07 a3.4 3.4 0 1 0 6.8 0 a3.4 3.4 0 1 0 -6.8 0zM541.9 241.07 a3.4 3.4 0 1 0 6.8 0 a3.4 3.4 0 1 0 -6.8 0zM512.46 224.07 a3.4 3.4 0 1 0 6.8 0 a3.4 3.4 0 1 0 -6.8 0zM541.9 377.07 a3.4 3.4 0 1 0 6.8 0 a3.4 3.4 0 1 0 -6.8 0zM571.35 394.07 a3.4 3.4 0 1 0 6.8 0 a3.4 3.4 0 1 0 -6.8 0zM571.35 428.07 a3.4 3.4 0 1 0 6.8 0 a3.4 3.4 0 1 0 -6.8 0zM541.9 445.07 a3.4 3.4 0 1 0 6.8 0 a3.4 3.4 0 1 0 -6.8 0zM512.46 428.07 a3.4 3.4 0 1 0 6.8 0 a3.4 3.4 0 1 0 -6.8 0zM512.46 394.07 a3.4 3.4 0 1 0 6.8 0 a3.4 3.4 0 1 0 -6.8 0zM600.79 445.07 a3.4 3.4 0 1 0 6.8 0 a3.4 3.4 0 1 0 -6.8 0zM600.79 479.07 a3.4 3.4 0 1 0 6.8 0 a3.4 3.4 0 1 0 -6.8 0zM571.35 496.07 a3.4 3.4 0 1 0 6.8 0 a3.4 3.4 0 1 0 -6.8 0zM541.9 479.07 a3.4 3.4 0 1 0 6.8 0 a3.4 3.4 0 1 0 -6.8 0zM571.35 530.07 a3.4 3.4 0 1 0 6.8 0 a3.4 3.4 0 1 0 -6.8 0zM541.9 547.07 a3.4 3.4 0 1 0 6.8 0 a3.4 3.4 0 1 0 -6.8 0zM512.46 530.07 a3.4 3.4 0 1 0 6.8 0 a3.4 3.4 0 1 0 -6.8 0zM512.46 496.07 a3.4 3.4 0 1 0 6.8 0 a3.4 3.4 0 1 0 -6.8 0zM600.79 547.07 a3.4 3.4 0 1 0 6.8 0 a3.4 3.4 0 1 0 -6.8 0zM600.79 581.07 a3.4 3.4 0 1 0 6.8 0 a3.4 3.4 0 1 0 -6.8 0zM571.35 598.07 a3.4 3.4 0 1 0 6.8 0 a3.4 3.4 0 1 0 -6.8 0zM541.9 581.07 a3.4 3.4 0 1 0 6.8 0 a3.4 3.4 0 1 0 -6.8 0zM600.79 -30.93 a3.4 3.4 0 1 0 6.8 0 a3.4 3.4 0 1 0 -6.8 0zM630.24 -13.93 a3.4 3.4 0 1 0 6.8 0 a3.4 3.4 0 1 0 -6.8 0zM630.24 20.07 a3.4 3.4 0 1 0 6.8 0 a3.4 3.4 0 1 0 -6.8 0zM600.79 37.07 a3.4 3.4 0 1 0 6.8 0 a3.4 3.4 0 1 0 -6.8 0zM571.35 20.07 a3.4 3.4 0 1 0 6.8 0 a3.4 3.4 0 1 0 -6.8 0zM571.35 -13.93 a3.4 3.4 0 1 0 6.8 0 a3.4 3.4 0 1 0 -6.8 0zM630.24 122.07 a3.4 3.4 0 1 0 6.8 0 a3.4 3.4 0 1 0 -6.8 0zM659.69 139.07 a3.4 3.4 0 1 0 6.8 0 a3.4 3.4 0 1 0 -6.8 0zM659.69 173.07 a3.4 3.4 0 1 0 6.8 0 a3.4 3.4 0 1 0 -6.8 0zM630.24 190.07 a3.4 3.4 0 1 0 6.8 0 a3.4 3.4 0 1 0 -6.8 0zM600.79 173.07 a3.4 3.4 0 1 0 6.8 0 a3.4 3.4 0 1 0 -6.8 0zM600.79 139.07 a3.4 3.4 0 1 0 6.8 0 a3.4 3.4 0 1 0 -6.8 0zM630.24 224.07 a3.4 3.4 0 1 0 6.8 0 a3.4 3.4 0 1 0 -6.8 0zM600.79 241.07 a3.4 3.4 0 1 0 6.8 0 a3.4 3.4 0 1 0 -6.8 0zM659.69 241.07 a3.4 3.4 0 1 0 6.8 0 a3.4 3.4 0 1 0 -6.8 0zM659.69 275.07 a3.4 3.4 0 1 0 6.8 0 a3.4 3.4 0 1 0 -6.8 0zM630.24 292.07 a3.4 3.4 0 1 0 6.8 0 a3.4 3.4 0 1 0 -6.8 0zM600.79 275.07 a3.4 3.4 0 1 0 6.8 0 a3.4 3.4 0 1 0 -6.8 0zM630.24 326.07 a3.4 3.4 0 1 0 6.8 0 a3.4 3.4 0 1 0 -6.8 0zM600.79 343.07 a3.4 3.4 0 1 0 6.8 0 a3.4 3.4 0 1 0 -6.8 0zM571.35 326.07 a3.4 3.4 0 1 0 6.8 0 a3.4 3.4 0 1 0 -6.8 0zM571.35 292.07 a3.4 3.4 0 1 0 6.8 0 a3.4 3.4 0 1 0 -6.8 0zM659.69 343.07 a3.4 3.4 0 1 0 6.8 0 a3.4 3.4 0 1 0 -6.8 0zM659.69 377.07 a3.4 3.4 0 1 0 6.8 0 a3.4 3.4 0 1 0 -6.8 0zM630.24 394.07 a3.4 3.4 0 1 0 6.8 0 a3.4 3.4 0 1 0 -6.8 0zM600.79 377.07 a3.4 3.4 0 1 0 6.8 0 a3.4 3.4 0 1 0 -6.8 0zM630.24 428.07 a3.4 3.4 0 1 0 6.8 0 a3.4 3.4 0 1 0 -6.8 0zM659.69 445.07 a3.4 3.4 0 1 0 6.8 0 a3.4 3.4 0 1 0 -6.8 0zM659.69 479.07 a3.4 3.4 0 1 0 6.8 0 a3.4 3.4 0 1 0 -6.8 0zM630.24 496.07 a3.4 3.4 0 1 0 6.8 0 a3.4 3.4 0 1 0 -6.8 0zM689.13 224.07 a3.4 3.4 0 1 0 6.8 0 a3.4 3.4 0 1 0 -6.8 0zM718.58 241.07 a3.4 3.4 0 1 0 6.8 0 a3.4 3.4 0 1 0 -6.8 0zM718.58 275.07 a3.4 3.4 0 1 0 6.8 0 a3.4 3.4 0 1 0 -6.8 0zM689.13 292.07 a3.4 3.4 0 1 0 6.8 0 a3.4 3.4 0 1 0 -6.8 0zM689.13 326.07 a3.4 3.4 0 1 0 6.8 0 a3.4 3.4 0 1 0 -6.8 0zM718.58 -30.93 a3.4 3.4 0 1 0 6.8 0 a3.4 3.4 0 1 0 -6.8 0zM748.02 -13.93 a3.4 3.4 0 1 0 6.8 0 a3.4 3.4 0 1 0 -6.8 0zM748.02 20.07 a3.4 3.4 0 1 0 6.8 0 a3.4 3.4 0 1 0 -6.8 0zM718.58 37.07 a3.4 3.4 0 1 0 6.8 0 a3.4 3.4 0 1 0 -6.8 0zM689.13 20.07 a3.4 3.4 0 1 0 6.8 0 a3.4 3.4 0 1 0 -6.8 0zM689.13 -13.93 a3.4 3.4 0 1 0 6.8 0 a3.4 3.4 0 1 0 -6.8 0zM718.58 71.07 a3.4 3.4 0 1 0 6.8 0 a3.4 3.4 0 1 0 -6.8 0zM748.02 88.07 a3.4 3.4 0 1 0 6.8 0 a3.4 3.4 0 1 0 -6.8 0zM748.02 122.07 a3.4 3.4 0 1 0 6.8 0 a3.4 3.4 0 1 0 -6.8 0zM718.58 139.07 a3.4 3.4 0 1 0 6.8 0 a3.4 3.4 0 1 0 -6.8 0zM689.13 122.07 a3.4 3.4 0 1 0 6.8 0 a3.4 3.4 0 1 0 -6.8 0zM689.13 88.07 a3.4 3.4 0 1 0 6.8 0 a3.4 3.4 0 1 0 -6.8 0zM718.58 173.07 a3.4 3.4 0 1 0 6.8 0 a3.4 3.4 0 1 0 -6.8 0zM748.02 190.07 a3.4 3.4 0 1 0 6.8 0 a3.4 3.4 0 1 0 -6.8 0zM748.02 224.07 a3.4 3.4 0 1 0 6.8 0 a3.4 3.4 0 1 0 -6.8 0zM689.13 190.07 a3.4 3.4 0 1 0 6.8 0 a3.4 3.4 0 1 0 -6.8 0zM777.47 -30.93 a3.4 3.4 0 1 0 6.8 0 a3.4 3.4 0 1 0 -6.8 0zM806.91 -13.93 a3.4 3.4 0 1 0 6.8 0 a3.4 3.4 0 1 0 -6.8 0zM806.91 20.07 a3.4 3.4 0 1 0 6.8 0 a3.4 3.4 0 1 0 -6.8 0zM777.47 37.07 a3.4 3.4 0 1 0 6.8 0 a3.4 3.4 0 1 0 -6.8 0zM836.36 37.07 a3.4 3.4 0 1 0 6.8 0 a3.4 3.4 0 1 0 -6.8 0zM836.36 71.07 a3.4 3.4 0 1 0 6.8 0 a3.4 3.4 0 1 0 -6.8 0zM806.91 88.07 a3.4 3.4 0 1 0 6.8 0 a3.4 3.4 0 1 0 -6.8 0zM777.47 71.07 a3.4 3.4 0 1 0 6.8 0 a3.4 3.4 0 1 0 -6.8 0zM806.91 122.07 a3.4 3.4 0 1 0 6.8 0 a3.4 3.4 0 1 0 -6.8 0zM777.47 139.07 a3.4 3.4 0 1 0 6.8 0 a3.4 3.4 0 1 0 -6.8 0zM806.91 224.07 a3.4 3.4 0 1 0 6.8 0 a3.4 3.4 0 1 0 -6.8 0zM836.36 241.07 a3.4 3.4 0 1 0 6.8 0 a3.4 3.4 0 1 0 -6.8 0zM836.36 275.07 a3.4 3.4 0 1 0 6.8 0 a3.4 3.4 0 1 0 -6.8 0zM806.91 292.07 a3.4 3.4 0 1 0 6.8 0 a3.4 3.4 0 1 0 -6.8 0zM777.47 275.07 a3.4 3.4 0 1 0 6.8 0 a3.4 3.4 0 1 0 -6.8 0zM777.47 241.07 a3.4 3.4 0 1 0 6.8 0 a3.4 3.4 0 1 0 -6.8 0zM777.47 479.07 a3.4 3.4 0 1 0 6.8 0 a3.4 3.4 0 1 0 -6.8 0zM806.91 496.07 a3.4 3.4 0 1 0 6.8 0 a3.4 3.4 0 1 0 -6.8 0zM806.91 530.07 a3.4 3.4 0 1 0 6.8 0 a3.4 3.4 0 1 0 -6.8 0zM777.47 547.07 a3.4 3.4 0 1 0 6.8 0 a3.4 3.4 0 1 0 -6.8 0zM748.02 530.07 a3.4 3.4 0 1 0 6.8 0 a3.4 3.4 0 1 0 -6.8 0zM748.02 496.07 a3.4 3.4 0 1 0 6.8 0 a3.4 3.4 0 1 0 -6.8 0zM865.81 122.07 a3.4 3.4 0 1 0 6.8 0 a3.4 3.4 0 1 0 -6.8 0zM895.25 139.07 a3.4 3.4 0 1 0 6.8 0 a3.4 3.4 0 1 0 -6.8 0zM895.25 173.07 a3.4 3.4 0 1 0 6.8 0 a3.4 3.4 0 1 0 -6.8 0zM865.81 190.07 a3.4 3.4 0 1 0 6.8 0 a3.4 3.4 0 1 0 -6.8 0zM836.36 173.07 a3.4 3.4 0 1 0 6.8 0 a3.4 3.4 0 1 0 -6.8 0zM836.36 139.07 a3.4 3.4 0 1 0 6.8 0 a3.4 3.4 0 1 0 -6.8 0zM865.81 224.07 a3.4 3.4 0 1 0 6.8 0 a3.4 3.4 0 1 0 -6.8 0zM895.25 241.07 a3.4 3.4 0 1 0 6.8 0 a3.4 3.4 0 1 0 -6.8 0zM895.25 275.07 a3.4 3.4 0 1 0 6.8 0 a3.4 3.4 0 1 0 -6.8 0zM865.81 292.07 a3.4 3.4 0 1 0 6.8 0 a3.4 3.4 0 1 0 -6.8 0zM865.81 428.07 a3.4 3.4 0 1 0 6.8 0 a3.4 3.4 0 1 0 -6.8 0zM895.25 445.07 a3.4 3.4 0 1 0 6.8 0 a3.4 3.4 0 1 0 -6.8 0zM895.25 479.07 a3.4 3.4 0 1 0 6.8 0 a3.4 3.4 0 1 0 -6.8 0zM865.81 496.07 a3.4 3.4 0 1 0 6.8 0 a3.4 3.4 0 1 0 -6.8 0zM836.36 479.07 a3.4 3.4 0 1 0 6.8 0 a3.4 3.4 0 1 0 -6.8 0zM836.36 445.07 a3.4 3.4 0 1 0 6.8 0 a3.4 3.4 0 1 0 -6.8 0zM895.25 -30.93 a3.4 3.4 0 1 0 6.8 0 a3.4 3.4 0 1 0 -6.8 0zM924.7 -13.93 a3.4 3.4 0 1 0 6.8 0 a3.4 3.4 0 1 0 -6.8 0zM924.7 20.07 a3.4 3.4 0 1 0 6.8 0 a3.4 3.4 0 1 0 -6.8 0zM895.25 37.07 a3.4 3.4 0 1 0 6.8 0 a3.4 3.4 0 1 0 -6.8 0zM865.81 20.07 a3.4 3.4 0 1 0 6.8 0 a3.4 3.4 0 1 0 -6.8 0zM865.81 -13.93 a3.4 3.4 0 1 0 6.8 0 a3.4 3.4 0 1 0 -6.8 0zM924.7 224.07 a3.4 3.4 0 1 0 6.8 0 a3.4 3.4 0 1 0 -6.8 0zM954.14 241.07 a3.4 3.4 0 1 0 6.8 0 a3.4 3.4 0 1 0 -6.8 0zM954.14 275.07 a3.4 3.4 0 1 0 6.8 0 a3.4 3.4 0 1 0 -6.8 0zM924.7 292.07 a3.4 3.4 0 1 0 6.8 0 a3.4 3.4 0 1 0 -6.8 0zM924.7 530.07 a3.4 3.4 0 1 0 6.8 0 a3.4 3.4 0 1 0 -6.8 0zM954.14 547.07 a3.4 3.4 0 1 0 6.8 0 a3.4 3.4 0 1 0 -6.8 0zM954.14 581.07 a3.4 3.4 0 1 0 6.8 0 a3.4 3.4 0 1 0 -6.8 0zM924.7 598.07 a3.4 3.4 0 1 0 6.8 0 a3.4 3.4 0 1 0 -6.8 0zM895.25 581.07 a3.4 3.4 0 1 0 6.8 0 a3.4 3.4 0 1 0 -6.8 0zM895.25 547.07 a3.4 3.4 0 1 0 6.8 0 a3.4 3.4 0 1 0 -6.8 0zM954.14 -30.93 a3.4 3.4 0 1 0 6.8 0 a3.4 3.4 0 1 0 -6.8 0zM983.59 -13.93 a3.4 3.4 0 1 0 6.8 0 a3.4 3.4 0 1 0 -6.8 0zM983.59 20.07 a3.4 3.4 0 1 0 6.8 0 a3.4 3.4 0 1 0 -6.8 0zM954.14 37.07 a3.4 3.4 0 1 0 6.8 0 a3.4 3.4 0 1 0 -6.8 0zM1013.03 37.07 a3.4 3.4 0 1 0 6.8 0 a3.4 3.4 0 1 0 -6.8 0zM1013.03 71.07 a3.4 3.4 0 1 0 6.8 0 a3.4 3.4 0 1 0 -6.8 0zM983.59 88.07 a3.4 3.4 0 1 0 6.8 0 a3.4 3.4 0 1 0 -6.8 0zM954.14 71.07 a3.4 3.4 0 1 0 6.8 0 a3.4 3.4 0 1 0 -6.8 0zM983.59 122.07 a3.4 3.4 0 1 0 6.8 0 a3.4 3.4 0 1 0 -6.8 0zM1013.03 139.07 a3.4 3.4 0 1 0 6.8 0 a3.4 3.4 0 1 0 -6.8 0zM1013.03 173.07 a3.4 3.4 0 1 0 6.8 0 a3.4 3.4 0 1 0 -6.8 0zM983.59 190.07 a3.4 3.4 0 1 0 6.8 0 a3.4 3.4 0 1 0 -6.8 0zM954.14 173.07 a3.4 3.4 0 1 0 6.8 0 a3.4 3.4 0 1 0 -6.8 0zM954.14 139.07 a3.4 3.4 0 1 0 6.8 0 a3.4 3.4 0 1 0 -6.8 0zM983.59 224.07 a3.4 3.4 0 1 0 6.8 0 a3.4 3.4 0 1 0 -6.8 0zM924.7 190.07 a3.4 3.4 0 1 0 6.8 0 a3.4 3.4 0 1 0 -6.8 0zM954.14 479.07 a3.4 3.4 0 1 0 6.8 0 a3.4 3.4 0 1 0 -6.8 0zM983.59 496.07 a3.4 3.4 0 1 0 6.8 0 a3.4 3.4 0 1 0 -6.8 0zM983.59 530.07 a3.4 3.4 0 1 0 6.8 0 a3.4 3.4 0 1 0 -6.8 0zM924.7 496.07 a3.4 3.4 0 1 0 6.8 0 a3.4 3.4 0 1 0 -6.8 0zM1013.03 547.07 a3.4 3.4 0 1 0 6.8 0 a3.4 3.4 0 1 0 -6.8 0zM1013.03 581.07 a3.4 3.4 0 1 0 6.8 0 a3.4 3.4 0 1 0 -6.8 0zM983.59 598.07 a3.4 3.4 0 1 0 6.8 0 a3.4 3.4 0 1 0 -6.8 0zM1042.48 20.07 a3.4 3.4 0 1 0 6.8 0 a3.4 3.4 0 1 0 -6.8 0zM1071.93 37.07 a3.4 3.4 0 1 0 6.8 0 a3.4 3.4 0 1 0 -6.8 0zM1071.93 71.07 a3.4 3.4 0 1 0 6.8 0 a3.4 3.4 0 1 0 -6.8 0zM1042.48 88.07 a3.4 3.4 0 1 0 6.8 0 a3.4 3.4 0 1 0 -6.8 0zM1042.48 122.07 a3.4 3.4 0 1 0 6.8 0 a3.4 3.4 0 1 0 -6.8 0zM1071.93 139.07 a3.4 3.4 0 1 0 6.8 0 a3.4 3.4 0 1 0 -6.8 0zM1071.93 173.07 a3.4 3.4 0 1 0 6.8 0 a3.4 3.4 0 1 0 -6.8 0zM1042.48 190.07 a3.4 3.4 0 1 0 6.8 0 a3.4 3.4 0 1 0 -6.8 0zM1042.48 224.07 a3.4 3.4 0 1 0 6.8 0 a3.4 3.4 0 1 0 -6.8 0zM1071.93 241.07 a3.4 3.4 0 1 0 6.8 0 a3.4 3.4 0 1 0 -6.8 0zM1071.93 275.07 a3.4 3.4 0 1 0 6.8 0 a3.4 3.4 0 1 0 -6.8 0zM1042.48 292.07 a3.4 3.4 0 1 0 6.8 0 a3.4 3.4 0 1 0 -6.8 0zM1013.03 275.07 a3.4 3.4 0 1 0 6.8 0 a3.4 3.4 0 1 0 -6.8 0zM1013.03 241.07 a3.4 3.4 0 1 0 6.8 0 a3.4 3.4 0 1 0 -6.8 0zM1071.93 377.07 a3.4 3.4 0 1 0 6.8 0 a3.4 3.4 0 1 0 -6.8 0zM1101.37 394.07 a3.4 3.4 0 1 0 6.8 0 a3.4 3.4 0 1 0 -6.8 0zM1101.37 428.07 a3.4 3.4 0 1 0 6.8 0 a3.4 3.4 0 1 0 -6.8 0zM1071.93 445.07 a3.4 3.4 0 1 0 6.8 0 a3.4 3.4 0 1 0 -6.8 0zM1042.48 428.07 a3.4 3.4 0 1 0 6.8 0 a3.4 3.4 0 1 0 -6.8 0zM1042.48 394.07 a3.4 3.4 0 1 0 6.8 0 a3.4 3.4 0 1 0 -6.8 0zM1071.93 479.07 a3.4 3.4 0 1 0 6.8 0 a3.4 3.4 0 1 0 -6.8 0zM1101.37 496.07 a3.4 3.4 0 1 0 6.8 0 a3.4 3.4 0 1 0 -6.8 0zM1101.37 530.07 a3.4 3.4 0 1 0 6.8 0 a3.4 3.4 0 1 0 -6.8 0zM1071.93 547.07 a3.4 3.4 0 1 0 6.8 0 a3.4 3.4 0 1 0 -6.8 0zM1042.48 530.07 a3.4 3.4 0 1 0 6.8 0 a3.4 3.4 0 1 0 -6.8 0zM1042.48 496.07 a3.4 3.4 0 1 0 6.8 0 a3.4 3.4 0 1 0 -6.8 0zM1130.82 173.07 a3.4 3.4 0 1 0 6.8 0 a3.4 3.4 0 1 0 -6.8 0zM1160.26 190.07 a3.4 3.4 0 1 0 6.8 0 a3.4 3.4 0 1 0 -6.8 0zM1160.26 224.07 a3.4 3.4 0 1 0 6.8 0 a3.4 3.4 0 1 0 -6.8 0zM1130.82 241.07 a3.4 3.4 0 1 0 6.8 0 a3.4 3.4 0 1 0 -6.8 0zM1101.37 224.07 a3.4 3.4 0 1 0 6.8 0 a3.4 3.4 0 1 0 -6.8 0zM1101.37 190.07 a3.4 3.4 0 1 0 6.8 0 a3.4 3.4 0 1 0 -6.8 0zM1189.71 241.07 a3.4 3.4 0 1 0 6.8 0 a3.4 3.4 0 1 0 -6.8 0zM1189.71 275.07 a3.4 3.4 0 1 0 6.8 0 a3.4 3.4 0 1 0 -6.8 0zM1160.26 292.07 a3.4 3.4 0 1 0 6.8 0 a3.4 3.4 0 1 0 -6.8 0zM1130.82 275.07 a3.4 3.4 0 1 0 6.8 0 a3.4 3.4 0 1 0 -6.8 0zM1160.26 326.07 a3.4 3.4 0 1 0 6.8 0 a3.4 3.4 0 1 0 -6.8 0zM1189.71 343.07 a3.4 3.4 0 1 0 6.8 0 a3.4 3.4 0 1 0 -6.8 0zM1189.71 377.07 a3.4 3.4 0 1 0 6.8 0 a3.4 3.4 0 1 0 -6.8 0zM1160.26 394.07 a3.4 3.4 0 1 0 6.8 0 a3.4 3.4 0 1 0 -6.8 0zM1130.82 377.07 a3.4 3.4 0 1 0 6.8 0 a3.4 3.4 0 1 0 -6.8 0zM1130.82 343.07 a3.4 3.4 0 1 0 6.8 0 a3.4 3.4 0 1 0 -6.8 0zM1160.26 428.07 a3.4 3.4 0 1 0 6.8 0 a3.4 3.4 0 1 0 -6.8 0zM1189.71 445.07 a3.4 3.4 0 1 0 6.8 0 a3.4 3.4 0 1 0 -6.8 0zM1189.71 479.07 a3.4 3.4 0 1 0 6.8 0 a3.4 3.4 0 1 0 -6.8 0zM1160.26 496.07 a3.4 3.4 0 1 0 6.8 0 a3.4 3.4 0 1 0 -6.8 0zM1130.82 479.07 a3.4 3.4 0 1 0 6.8 0 a3.4 3.4 0 1 0 -6.8 0zM1130.82 445.07 a3.4 3.4 0 1 0 6.8 0 a3.4 3.4 0 1 0 -6.8 0zM1219.15 20.07 a3.4 3.4 0 1 0 6.8 0 a3.4 3.4 0 1 0 -6.8 0zM1248.6 37.07 a3.4 3.4 0 1 0 6.8 0 a3.4 3.4 0 1 0 -6.8 0zM1248.6 71.07 a3.4 3.4 0 1 0 6.8 0 a3.4 3.4 0 1 0 -6.8 0zM1219.15 88.07 a3.4 3.4 0 1 0 6.8 0 a3.4 3.4 0 1 0 -6.8 0zM1189.71 71.07 a3.4 3.4 0 1 0 6.8 0 a3.4 3.4 0 1 0 -6.8 0zM1189.71 37.07 a3.4 3.4 0 1 0 6.8 0 a3.4 3.4 0 1 0 -6.8 0zM1219.15 292.07 a3.4 3.4 0 1 0 6.8 0 a3.4 3.4 0 1 0 -6.8 0zM1219.15 326.07 a3.4 3.4 0 1 0 6.8 0 a3.4 3.4 0 1 0 -6.8 0zM1248.6 343.07 a3.4 3.4 0 1 0 6.8 0 a3.4 3.4 0 1 0 -6.8 0zM1248.6 377.07 a3.4 3.4 0 1 0 6.8 0 a3.4 3.4 0 1 0 -6.8 0zM1219.15 394.07 a3.4 3.4 0 1 0 6.8 0 a3.4 3.4 0 1 0 -6.8 0zM1219.15 428.07 a3.4 3.4 0 1 0 6.8 0 a3.4 3.4 0 1 0 -6.8 0zM1248.6 445.07 a3.4 3.4 0 1 0 6.8 0 a3.4 3.4 0 1 0 -6.8 0zM1248.6 479.07 a3.4 3.4 0 1 0 6.8 0 a3.4 3.4 0 1 0 -6.8 0zM1219.15 496.07 a3.4 3.4 0 1 0 6.8 0 a3.4 3.4 0 1 0 -6.8 0zM1219.15 530.07 a3.4 3.4 0 1 0 6.8 0 a3.4 3.4 0 1 0 -6.8 0zM1248.6 547.07 a3.4 3.4 0 1 0 6.8 0 a3.4 3.4 0 1 0 -6.8 0zM1248.6 581.07 a3.4 3.4 0 1 0 6.8 0 a3.4 3.4 0 1 0 -6.8 0zM1219.15 598.07 a3.4 3.4 0 1 0 6.8 0 a3.4 3.4 0 1 0 -6.8 0zM1189.71 581.07 a3.4 3.4 0 1 0 6.8 0 a3.4 3.4 0 1 0 -6.8 0zM1189.71 547.07 a3.4 3.4 0 1 0 6.8 0 a3.4 3.4 0 1 0 -6.8 0zM1278.05 88.07 a3.4 3.4 0 1 0 6.8 0 a3.4 3.4 0 1 0 -6.8 0zM1278.05 122.07 a3.4 3.4 0 1 0 6.8 0 a3.4 3.4 0 1 0 -6.8 0zM1248.6 139.07 a3.4 3.4 0 1 0 6.8 0 a3.4 3.4 0 1 0 -6.8 0zM1219.15 122.07 a3.4 3.4 0 1 0 6.8 0 a3.4 3.4 0 1 0 -6.8 0zM1248.6 275.07 a3.4 3.4 0 1 0 6.8 0 a3.4 3.4 0 1 0 -6.8 0zM1278.05 292.07 a3.4 3.4 0 1 0 6.8 0 a3.4 3.4 0 1 0 -6.8 0zM1278.05 326.07 a3.4 3.4 0 1 0 6.8 0 a3.4 3.4 0 1 0 -6.8 0zM1278.05 428.07 a3.4 3.4 0 1 0 6.8 0 a3.4 3.4 0 1 0 -6.8 0zM1307.49 445.07 a3.4 3.4 0 1 0 6.8 0 a3.4 3.4 0 1 0 -6.8 0zM1307.49 479.07 a3.4 3.4 0 1 0 6.8 0 a3.4 3.4 0 1 0 -6.8 0zM1278.05 496.07 a3.4 3.4 0 1 0 6.8 0 a3.4 3.4 0 1 0 -6.8 0zM1278.05 530.07 a3.4 3.4 0 1 0 6.8 0 a3.4 3.4 0 1 0 -6.8 0zM1307.49 547.07 a3.4 3.4 0 1 0 6.8 0 a3.4 3.4 0 1 0 -6.8 0zM1307.49 581.07 a3.4 3.4 0 1 0 6.8 0 a3.4 3.4 0 1 0 -6.8 0zM1278.05 598.07 a3.4 3.4 0 1 0 6.8 0 a3.4 3.4 0 1 0 -6.8 0zM1307.49 -30.93 a3.4 3.4 0 1 0 6.8 0 a3.4 3.4 0 1 0 -6.8 0zM1336.94 -13.93 a3.4 3.4 0 1 0 6.8 0 a3.4 3.4 0 1 0 -6.8 0zM1336.94 20.07 a3.4 3.4 0 1 0 6.8 0 a3.4 3.4 0 1 0 -6.8 0zM1307.49 37.07 a3.4 3.4 0 1 0 6.8 0 a3.4 3.4 0 1 0 -6.8 0zM1278.05 20.07 a3.4 3.4 0 1 0 6.8 0 a3.4 3.4 0 1 0 -6.8 0zM1278.05 -13.93 a3.4 3.4 0 1 0 6.8 0 a3.4 3.4 0 1 0 -6.8 0zM1307.49 173.07 a3.4 3.4 0 1 0 6.8 0 a3.4 3.4 0 1 0 -6.8 0zM1336.94 190.07 a3.4 3.4 0 1 0 6.8 0 a3.4 3.4 0 1 0 -6.8 0zM1336.94 224.07 a3.4 3.4 0 1 0 6.8 0 a3.4 3.4 0 1 0 -6.8 0zM1307.49 241.07 a3.4 3.4 0 1 0 6.8 0 a3.4 3.4 0 1 0 -6.8 0zM1278.05 224.07 a3.4 3.4 0 1 0 6.8 0 a3.4 3.4 0 1 0 -6.8 0zM1278.05 190.07 a3.4 3.4 0 1 0 6.8 0 a3.4 3.4 0 1 0 -6.8 0zM1307.49 377.07 a3.4 3.4 0 1 0 6.8 0 a3.4 3.4 0 1 0 -6.8 0zM1336.94 394.07 a3.4 3.4 0 1 0 6.8 0 a3.4 3.4 0 1 0 -6.8 0zM1336.94 428.07 a3.4 3.4 0 1 0 6.8 0 a3.4 3.4 0 1 0 -6.8 0zM1278.05 394.07 a3.4 3.4 0 1 0 6.8 0 a3.4 3.4 0 1 0 -6.8 0zM1366.38 445.07 a3.4 3.4 0 1 0 6.8 0 a3.4 3.4 0 1 0 -6.8 0zM1366.38 479.07 a3.4 3.4 0 1 0 6.8 0 a3.4 3.4 0 1 0 -6.8 0zM1336.94 496.07 a3.4 3.4 0 1 0 6.8 0 a3.4 3.4 0 1 0 -6.8 0zM1336.94 530.07 a3.4 3.4 0 1 0 6.8 0 a3.4 3.4 0 1 0 -6.8 0zM1366.38 547.07 a3.4 3.4 0 1 0 6.8 0 a3.4 3.4 0 1 0 -6.8 0zM1366.38 581.07 a3.4 3.4 0 1 0 6.8 0 a3.4 3.4 0 1 0 -6.8 0zM1336.94 598.07 a3.4 3.4 0 1 0 6.8 0 a3.4 3.4 0 1 0 -6.8 0zM1395.83 20.07 a3.4 3.4 0 1 0 6.8 0 a3.4 3.4 0 1 0 -6.8 0zM1425.27 37.07 a3.4 3.4 0 1 0 6.8 0 a3.4 3.4 0 1 0 -6.8 0zM1425.27 71.07 a3.4 3.4 0 1 0 6.8 0 a3.4 3.4 0 1 0 -6.8 0zM1395.83 88.07 a3.4 3.4 0 1 0 6.8 0 a3.4 3.4 0 1 0 -6.8 0zM1366.38 71.07 a3.4 3.4 0 1 0 6.8 0 a3.4 3.4 0 1 0 -6.8 0zM1366.38 37.07 a3.4 3.4 0 1 0 6.8 0 a3.4 3.4 0 1 0 -6.8 0zM1366.38 173.07 a3.4 3.4 0 1 0 6.8 0 a3.4 3.4 0 1 0 -6.8 0zM1395.83 190.07 a3.4 3.4 0 1 0 6.8 0 a3.4 3.4 0 1 0 -6.8 0zM1395.83 224.07 a3.4 3.4 0 1 0 6.8 0 a3.4 3.4 0 1 0 -6.8 0zM1366.38 241.07 a3.4 3.4 0 1 0 6.8 0 a3.4 3.4 0 1 0 -6.8 0zM1395.83 496.07 a3.4 3.4 0 1 0 6.8 0 a3.4 3.4 0 1 0 -6.8 0zM1395.83 530.07 a3.4 3.4 0 1 0 6.8 0 a3.4 3.4 0 1 0 -6.8 0zM1425.27 -30.93 a3.4 3.4 0 1 0 6.8 0 a3.4 3.4 0 1 0 -6.8 0zM1454.72 -13.93 a3.4 3.4 0 1 0 6.8 0 a3.4 3.4 0 1 0 -6.8 0zM1454.72 20.07 a3.4 3.4 0 1 0 6.8 0 a3.4 3.4 0 1 0 -6.8 0zM1395.83 -13.93 a3.4 3.4 0 1 0 6.8 0 a3.4 3.4 0 1 0 -6.8 0zM1484.16 37.07 a3.4 3.4 0 1 0 6.8 0 a3.4 3.4 0 1 0 -6.8 0zM1484.16 71.07 a3.4 3.4 0 1 0 6.8 0 a3.4 3.4 0 1 0 -6.8 0zM1454.72 88.07 a3.4 3.4 0 1 0 6.8 0 a3.4 3.4 0 1 0 -6.8 0zM1454.72 122.07 a3.4 3.4 0 1 0 6.8 0 a3.4 3.4 0 1 0 -6.8 0zM1425.27 139.07 a3.4 3.4 0 1 0 6.8 0 a3.4 3.4 0 1 0 -6.8 0zM1395.83 122.07 a3.4 3.4 0 1 0 6.8 0 a3.4 3.4 0 1 0 -6.8 0zM1425.27 377.07 a3.4 3.4 0 1 0 6.8 0 a3.4 3.4 0 1 0 -6.8 0zM1454.72 394.07 a3.4 3.4 0 1 0 6.8 0 a3.4 3.4 0 1 0 -6.8 0zM1454.72 428.07 a3.4 3.4 0 1 0 6.8 0 a3.4 3.4 0 1 0 -6.8 0zM1425.27 445.07 a3.4 3.4 0 1 0 6.8 0 a3.4 3.4 0 1 0 -6.8 0zM1395.83 428.07 a3.4 3.4 0 1 0 6.8 0 a3.4 3.4 0 1 0 -6.8 0zM1395.83 394.07 a3.4 3.4 0 1 0 6.8 0 a3.4 3.4 0 1 0 -6.8 0zM1425.27 479.07 a3.4 3.4 0 1 0 6.8 0 a3.4 3.4 0 1 0 -6.8 0zM1454.72 496.07 a3.4 3.4 0 1 0 6.8 0 a3.4 3.4 0 1 0 -6.8 0zM1454.72 530.07 a3.4 3.4 0 1 0 6.8 0 a3.4 3.4 0 1 0 -6.8 0zM1425.27 547.07 a3.4 3.4 0 1 0 6.8 0 a3.4 3.4 0 1 0 -6.8 0zM1484.16 547.07 a3.4 3.4 0 1 0 6.8 0 a3.4 3.4 0 1 0 -6.8 0zM1484.16 581.07 a3.4 3.4 0 1 0 6.8 0 a3.4 3.4 0 1 0 -6.8 0zM1454.72 598.07 a3.4 3.4 0 1 0 6.8 0 a3.4 3.4 0 1 0 -6.8 0zM1425.27 581.07 a3.4 3.4 0 1 0 6.8 0 a3.4 3.4 0 1 0 -6.8 0z" fill="url(&quot;#SvgjsLinearGradient1450&quot;)"></path><path d="M56.99 556.75L103.75 583.75L103.75 637.75L56.99 664.75L10.22 637.75L10.22 583.75zM103.75 -10.25L150.52 16.75L150.52 70.75L103.75 97.75L56.99 70.75L56.99 16.75zM150.52 70.75L197.29 97.75L197.29 151.75L150.52 178.75L103.75 151.75L103.75 97.75zM103.75 151.75L150.52 178.75L150.52 232.75L103.75 259.75L56.99 232.75L56.99 178.75zM150.52 232.75L197.29 259.75L197.29 313.75L150.52 340.75L103.75 313.75L103.75 259.75zM150.52 394.75L197.29 421.75L197.29 475.75L150.52 502.75L103.75 475.75L103.75 421.75zM103.75 475.75L150.52 502.75L150.52 556.75L103.75 583.75L56.99 556.75L56.99 502.75zM150.52 556.75L197.29 583.75L197.29 637.75L150.52 664.75L103.75 637.75L103.75 583.75zM197.29 -10.25L244.05 16.75L244.05 70.75L197.29 97.75L150.52 70.75L150.52 16.75zM244.05 70.75L290.82 97.75L290.82 151.75L244.05 178.75L197.29 151.75L197.29 97.75zM244.05 394.75L290.82 421.75L290.82 475.75L244.05 502.75L197.29 475.75L197.29 421.75zM337.59 70.75L384.35 97.75L384.35 151.75L337.59 178.75L290.82 151.75L290.82 97.75zM290.82 151.75L337.59 178.75L337.59 232.75L290.82 259.75L244.05 232.75L244.05 178.75zM337.59 394.75L384.35 421.75L384.35 475.75L337.59 502.75L290.82 475.75L290.82 421.75zM290.82 475.75L337.59 502.75L337.59 556.75L290.82 583.75L244.05 556.75L244.05 502.75zM384.35 -10.25L431.12 16.75L431.12 70.75L384.35 97.75L337.59 70.75L337.59 16.75zM384.35 151.75L431.12 178.75L431.12 232.75L384.35 259.75L337.59 232.75L337.59 178.75zM431.12 394.75L477.89 421.75L477.89 475.75L431.12 502.75L384.35 475.75L384.35 421.75zM384.35 475.75L431.12 502.75L431.12 556.75L384.35 583.75L337.59 556.75L337.59 502.75zM477.89 -10.25L524.65 16.75L524.65 70.75L477.89 97.75L431.12 70.75L431.12 16.75zM571.42 151.75L618.19 178.75L618.19 232.75L571.42 259.75L524.65 232.75L524.65 178.75zM571.42 313.75L618.19 340.75L618.19 394.75L571.42 421.75L524.65 394.75L524.65 340.75zM618.19 394.75L664.95 421.75L664.95 475.75L618.19 502.75L571.42 475.75L571.42 421.75zM618.19 556.75L664.95 583.75L664.95 637.75L618.19 664.75L571.42 637.75L571.42 583.75zM664.95 313.75L711.72 340.75L711.72 394.75L664.95 421.75L618.19 394.75L618.19 340.75zM664.95 475.75L711.72 502.75L711.72 556.75L664.95 583.75L618.19 556.75L618.19 502.75zM805.25 70.75L852.02 97.75L852.02 151.75L805.25 178.75L758.49 151.75L758.49 97.75zM805.25 394.75L852.02 421.75L852.02 475.75L805.25 502.75L758.49 475.75L758.49 421.75zM758.49 475.75L805.25 502.75L805.25 556.75L758.49 583.75L711.72 556.75L711.72 502.75zM898.79 70.75L945.55 97.75L945.55 151.75L898.79 178.75L852.02 151.75L852.02 97.75zM945.55 313.75L992.32 340.75L992.32 394.75L945.55 421.75L898.79 394.75L898.79 340.75zM1039.09 -10.25L1085.85 16.75L1085.85 70.75L1039.09 97.75L992.32 70.75L992.32 16.75zM1039.09 151.75L1085.85 178.75L1085.85 232.75L1039.09 259.75L992.32 232.75L992.32 178.75zM1132.62 -10.25L1179.39 16.75L1179.39 70.75L1132.62 97.75L1085.85 70.75L1085.85 16.75zM1179.39 394.75L1226.15 421.75L1226.15 475.75L1179.39 502.75L1132.62 475.75L1132.62 421.75zM1179.39 556.75L1226.15 583.75L1226.15 637.75L1179.39 664.75L1132.62 637.75L1132.62 583.75zM1226.15 151.75L1272.92 178.75L1272.92 232.75L1226.15 259.75L1179.39 232.75L1179.39 178.75zM1272.92 232.75L1319.69 259.75L1319.69 313.75L1272.92 340.75L1226.15 313.75L1226.15 259.75zM1319.69 -10.25L1366.45 16.75L1366.45 70.75L1319.69 97.75L1272.92 70.75L1272.92 16.75zM1366.45 70.75L1413.22 97.75L1413.22 151.75L1366.45 178.75L1319.69 151.75L1319.69 97.75zM1319.69 151.75L1366.45 178.75L1366.45 232.75L1319.69 259.75L1272.92 232.75L1272.92 178.75zM1319.69 313.75L1366.45 340.75L1366.45 394.75L1319.69 421.75L1272.92 394.75L1272.92 340.75zM1366.45 394.75L1413.22 421.75L1413.22 475.75L1366.45 502.75L1319.69 475.75L1319.69 421.75zM1366.45 556.75L1413.22 583.75L1413.22 637.75L1366.45 664.75L1319.69 637.75L1319.69 583.75zM1413.22 -10.25L1459.99 16.75L1459.99 70.75L1413.22 97.75L1366.45 70.75L1366.45 16.75zM1459.99 70.75L1506.75 97.75L1506.75 151.75L1459.99 178.75L1413.22 151.75L1413.22 97.75zM1413.22 151.75L1459.99 178.75L1459.99 232.75L1413.22 259.75L1366.45 232.75L1366.45 178.75zM1459.99 232.75L1506.75 259.75L1506.75 313.75L1459.99 340.75L1413.22 313.75L1413.22 259.75zM1413.22 313.75L1459.99 340.75L1459.99 394.75L1413.22 421.75L1366.45 394.75L1366.45 340.75zM1459.99 394.75L1506.75 421.75L1506.75 475.75L1459.99 502.75L1413.22 475.75L1413.22 421.75z" stroke="url(&quot;#SvgjsLinearGradient1451&quot;)" stroke-width="2"></path></g><defs><mask id="SvgjsMask1449"><rect width="1440" height="560" fill="#ffffff"></rect></mask><linearGradient x1="0" y1="280" x2="1440" y2="280" gradientUnits="userSpaceOnUse" id="SvgjsLinearGradient1450"><stop stop-color="rgba(72, 96, 119, 0)" offset="0.61"></stop><stop stop-color="rgba(0, 93, 186, 1)" offset="1"></stop></linearGradient><linearGradient x1="0" y1="280" x2="1440" y2="280" gradientUnits="userSpaceOnUse" id="SvgjsLinearGradient1451"><stop stop-color="rgba(14, 42, 71, 0)" offset="0"></stop><stop stop-color="rgba(14, 42, 71, 0)" offset="0.46"></stop><stop stop-color="rgba(14, 42, 71, 0)" offset="0.58"></stop><stop stop-color="rgba(0, 69, 158, 1)" offset="1"></stop></linearGradient></defs></svg>