<svg xmlns="http://www.w3.org/2000/svg" viewBox="0 0 1920 1080"><g transform="
          rotate(314 960 540) 
          translate(-934.545294885269 -525.6817283729638)
          scale(1.9734846821721552)
        "><rect width="1920" height="1080" fill="rgb(0, 20, 51)"></rect><g transform="translate(0, 0)"><path fill="rgb(28, 67, 123)" fill-opacity="1" d="M0,529.415L64,525.113C128,520.81,256,512.206,384,510.872C512,509.538,640,515.475,768,516.142C896,516.81,1024,512.208,1152,454.775C1280,397.341,1408,287.075,1536,277.762C1664,268.45,1792,360.091,1856,405.911L1920,451.731L1920,1080L1856,1080C1792,1080,1664,1080,1536,1080C1408,1080,1280,1080,1152,1080C1024,1080,896,1080,768,1080C640,1080,512,1080,384,1080C256,1080,128,1080,64,1080L0,1080Z"></path></g><g transform="translate(0, 540)"><path fill="rgb(56, 113, 194)" fill-opacity="1" d="M0,8.289L64,73.814C128,139.338,256,270.387,384,303.028C512,335.67,640,269.905,768,209.033C896,148.161,1024,92.183,1152,121.078C1280,149.974,1408,263.743,1536,284.257C1664,304.771,1792,232.03,1856,195.659L1920,159.289L1920,540L1856,540C1792,540,1664,540,1536,540C1408,540,1280,540,1152,540C1024,540,896,540,768,540C640,540,512,540,384,540C256,540,128,540,64,540L0,540Z"></path></g></g></svg>